<svg width="28" height="28" viewBox="0 0 28 28" fill="none" xmlns="http://www.w3.org/2000/svg">
<path fill-rule="evenodd" clip-rule="evenodd" d="M28 14C28 21.732 21.732 28 14 28C6.26801 28 0 21.732 0 14C0 6.26801 6.26801 0 14 0C21.732 0 28 6.26801 28 14ZM18.6667 7.77783C18.6667 10.3552 16.5774 12.4445 14 12.4445C11.4227 12.4445 9.33337 10.3552 9.33337 7.77783C9.33337 5.2005 11.4227 3.11115 14 3.11115C16.5774 3.11115 18.6667 5.2005 18.6667 7.77783ZM19.4997 16.2781C20.9583 17.7368 21.7778 19.715 21.7778 21.7778H14H6.22223C6.22223 19.715 7.04167 17.7368 8.50029 16.2781C9.9589 14.8195 11.9372 14.0001 14 14.0001C16.0628 14.0001 18.0411 14.8195 19.4997 16.2781Z" fill="white"/>
</svg>
